<?xml version="1.0" encoding="UTF-8"?>
<svg id="Layer_2" data-name="Layer 2" xmlns="http://www.w3.org/2000/svg" xmlns:xlink="http://www.w3.org/1999/xlink" viewBox="0 0 814.17 633.63">
  <defs>
    <style>
      .cls-1 {
        fill: #bdba72;
      }

      .cls-2 {
        fill: #5c6362;
      }
    </style>
    <symbol id="Drone" viewBox="0 0 814.17 633.63">
      <g>
        <path class="cls-2" d="m187.56.74c12.01.63,24.03,1.25,36.04,1.88,1.97.17,3.95.34,5.93.51,1.67.18,3.34.37,5.01.55,1.33.22,2.65.45,3.98.67,14.47,2.4,28.98,4.6,43.38,7.35,3.77.72,7.96,2.35,10.68,4.92,9.9,9.37,10.15,15.94-.7,24.55-6.12,4.87-15.1,7.9-23.01,8.44-27.34,1.84-54.78,2.21-82.59,3.16,27.74,47,55.53,94.09,84.32,142.86,9.2-14.25,17.56-27.39,26.12-40.41,7.37-11.21,15.18-22.13,22.39-33.44,7.78-12.18,14.89-24.78,22.65-36.97,10.55-16.58,21.47-32.92,32.16-49.41,5.08-7.83,9.69-15.98,15.08-23.59,5.45-7.7,13.39-13.14,22.73-10.55,6.44,1.78,13.24,6.52,17.28,11.89,12.13,16.13,23.29,33.01,34.25,49.98,15.49,23.99,30.38,48.36,45.67,72.48,10.96,17.29,22.13,34.44,33.29,51.61,1.02,1.57,2.59,2.77,4.48,4.75,28.65-46.75,56.88-92.8,85.89-140.14-6.47-.32-11.94-.79-17.41-.82-19.75-.11-39.53.51-59.25-.3-11.95-.49-24.02-1.3-33.38-11.55-9.26-10.13-4.26-19.69,4.3-23.71,8.69-4.08,18.34-6.89,27.85-8.29,20.45-3,41.03-5.8,61.65-6.7,23.62-1.03,47.33,0,71,.33,10.6.15,21.19.72,31.79,1.16,4.93.21,9.85.59,14.78.89,7.52.59,15.04,1.18,22.56,1.77,8.55.84,17.1,1.75,25.65,2.49,4.95.43,9.91.63,14.87.84,12.23.52,21.34,15.33,15.18,25.97-8.62,14.9-18.34,29.17-27.36,43.85-16.87,27.47-33.31,55.21-50.41,82.54-27.28,43.57-55,86.86-82.43,130.33-7.85,12.45-15.11,25.28-23.1,37.63-8.49,13.13-17.48,25.94-26.35,38.82-1.42,2.06-3.4,3.72-5.79,6.29-62.62-98.74-124.62-196.49-188.07-296.53-64.26,100.29-127.17,198.47-191,298.09-8.58-12.76-16.6-24.03-23.93-35.74-21.06-33.61-41.74-67.45-62.75-101.08-14.81-23.7-30.06-47.12-44.89-70.81-15.46-24.7-30.41-49.72-46.05-74.3-11.28-17.73-22.81-35.35-35.22-52.29C-4.18,28.41-.13,13.37,13.21,8.57c5.68-2.04,12.41-1.09,18.65-1.67,16.41-1.51,32.79-3.33,49.21-4.6,8.17-.63,16.42-.21,24.63-.45,11.83-.35,23.65-1.03,35.48-1.28,12.49-.26,24.99-.19,37.48-.26,2.97.14,5.94.28,8.91.42Zm28.51,277.05c8.18-13.24,15.24-24.39,21.9-35.78.96-1.63.76-4.8-.2-6.54-4.11-7.45-8.75-14.6-13.12-21.91-15.39-25.74-30.57-51.61-46.18-77.21-16.45-26.97-33.21-53.76-50.15-80.42-1.47-2.32-5.32-4.32-8.12-4.39-11.81-.3-23.63.16-35.45.4-2.9.06-5.79.37-8.02.52,46.05,74.46,91.92,148.63,139.35,225.32Zm381.46.83c47.75-75.94,94.6-150.44,141.6-225.19-1.01-.17-1.93-.43-2.85-.46-9.11-.36-18.23-1.07-27.33-.87-6.5.14-13.92-2.83-18.82,4.9-18.01,28.39-36.29,56.6-54.35,84.96-19.77,31.04-39.45,62.13-58.96,93.33-1.31,2.1-2.01,6.04-.92,7.95,6.58,11.51,13.76,22.67,21.63,35.38Z"/>
        <path class="cls-1" d="m543.69,460.96c-45.63-71.57-90.45-141.89-135.53-212.6-45.43,71.61-90.33,142.39-135.81,214.09-4.6-6.58-9.07-12.78-13.32-19.13-4.51-6.73-8.64-13.73-13.25-20.39-4.24-6.14-.81-10.92,2.24-15.81,24.35-39.05,48.81-78.03,73.11-117.12,20.38-32.78,40.43-65.76,60.94-98.47,7.57-12.07,15.99-23.62,24.1-35.35.69-1,1.98-1.58,3.96-3.1,4.35,7.17,8.38,13.91,12.49,20.59,11.19,18.15,22.42,36.27,33.62,54.42,16.28,26.39,32.41,52.86,48.85,79.15,9.91,15.84,20.35,31.35,30.43,47.08,10.78,16.82,21.85,33.48,31.94,50.7,5.39,9.19,7.07,11.72-1.11,22.92-7.36,10.07-14.15,20.56-22.65,33.01Z"/>
        <path class="cls-1" d="m407.49,411.55c-28.73,45.62-56.98,90.49-85.34,135.52-9.86-15.26-19.44-30.07-29.38-45.45,37.65-61.52,75.63-123.56,114.32-186.77,4.11,6.73,7.49,12.3,10.92,17.84,12.86,20.78,25.83,41.49,38.57,62.34,16.63,27.22,33.06,54.56,49.63,81.81,4.29,7.05,9.28,13.73,12.91,21.09,1.35,2.74.92,7.65-.72,10.34-6.72,10.98-14.21,21.49-21.44,32.16-.81,1.19-1.76,2.29-3.78,4.89-31.16-43.47-56.25-89.75-85.69-133.78Z"/>
        <path class="cls-1" d="m408.32,480.88c8.5,13.98,16.82,27.66,25.14,41.34,10.64,17.5,21.08,35.11,31.98,52.45,6.7,10.66,7.02,12.79-.03,23.12-6.82,9.99-13.65,19.97-20.54,29.91-.89,1.28-2.13,2.32-4.32,4.67-6.32-10.55-12.16-20.23-17.93-29.96-3.72-6.27-7.36-12.6-11-18.91-2.84-4.91-4.98-4.71-7.88.29-8.95,15.48-18.26,30.75-27.47,46.08-.65,1.08-1.62,1.98-3.12,3.76-5.29-8.47-10.27-16.41-15.22-24.36-2.96-4.76-5.45-9.9-8.95-14.22-4.39-5.43-4.02-10.41-.66-15.93,12.48-20.47,24.94-40.95,37.32-61.47,6.82-11.3,13.46-22.72,20.23-34.05.56-.94,1.49-1.66,2.46-2.71Z"/>
        <path class="cls-1" d="m756.48,4.6c-7.52-.59-15.04-1.18-22.56-1.77,7.52.59,15.04,1.18,22.56,1.77Z"/>
        <path class="cls-1" d="m187.56.74c-2.97-.14-5.94-.28-8.91-.42,2.97.14,5.94.28,8.91.42Z"/>
        <path class="cls-1" d="m229.53,3.12c-1.98-.17-3.95-.34-5.93-.51,1.98.17,3.95.34,5.93.51Z"/>
        <path class="cls-1" d="m238.52,4.34c-1.33-.23-2.65-.45-3.98-.67,1.33.23,2.65.45,3.98.67Z"/>
      </g>
    </symbol>
  </defs>
  <g id="Layer_1-2" data-name="Layer 1">
    <use width="814.17" height="633.63" xlink:href="#Drone"/>
  </g>
</svg>